<svg width="26" height="26" viewBox="0 0 26 26" fill="none" xmlns="http://www.w3.org/2000/svg">
<path d="M12.8583 0.17218C16.2847 0.17218 16.7123 0.184791 18.0566 0.247847C19.3997 0.310902 20.314 0.521508 21.1186 0.834264C21.9509 1.15459 22.6521 1.58841 23.3533 2.28832C23.9945 2.91875 24.4907 3.68133 24.8073 4.52301C25.1188 5.32634 25.3307 6.24191 25.3937 7.58499C25.453 8.92934 25.4694 9.35685 25.4694 12.7833C25.4694 16.2097 25.4568 16.6372 25.3937 17.9816C25.3307 19.3247 25.1188 20.239 24.8073 21.0436C24.4916 21.8857 23.9953 22.6485 23.3533 23.2783C22.7227 23.9193 21.9601 24.4155 21.1186 24.7323C20.3153 25.0438 19.3997 25.2557 18.0566 25.3187C16.7123 25.378 16.2847 25.3944 12.8583 25.3944C9.43186 25.3944 9.00435 25.3818 7.66 25.3187C6.31692 25.2557 5.40261 25.0438 4.59803 24.7323C3.75601 24.4164 2.9933 23.9201 2.36334 23.2783C1.72194 22.6479 1.22573 21.8853 0.909276 21.0436C0.59652 20.2402 0.385915 19.3247 0.322859 17.9816C0.263587 16.6372 0.247192 16.2097 0.247192 12.7833C0.247192 9.35685 0.259803 8.92934 0.322859 7.58499C0.385915 6.24065 0.59652 5.3276 0.909276 4.52301C1.22485 3.68082 1.72118 2.91802 2.36334 2.28832C2.99348 1.64671 3.75614 1.15046 4.59803 0.834264C5.40261 0.521508 6.31566 0.310902 7.66 0.247847C9.00435 0.188575 9.43186 0.17218 12.8583 0.17218ZM12.8583 6.47774C11.186 6.47774 9.58212 7.14207 8.3996 8.32459C7.21708 9.50711 6.55275 11.111 6.55275 12.7833C6.55275 14.4556 7.21708 16.0595 8.3996 17.242C9.58212 18.4245 11.186 19.0888 12.8583 19.0888C14.5306 19.0888 16.1345 18.4245 17.317 17.242C18.4995 16.0595 19.1639 14.4556 19.1639 12.7833C19.1639 11.111 18.4995 9.50711 17.317 8.32459C16.1345 7.14207 14.5306 6.47774 12.8583 6.47774ZM21.0555 6.16246C21.0555 5.74437 20.8894 5.34341 20.5938 5.04778C20.2982 4.75215 19.8972 4.58607 19.4791 4.58607C19.0611 4.58607 18.6601 4.75215 18.3645 5.04778C18.0688 5.34341 17.9027 5.74437 17.9027 6.16246C17.9027 6.58054 18.0688 6.9815 18.3645 7.27713C18.6601 7.57276 19.0611 7.73885 19.4791 7.73885C19.8972 7.73885 20.2982 7.57276 20.5938 7.27713C20.8894 6.9815 21.0555 6.58054 21.0555 6.16246ZM12.8583 8.99996C13.8617 8.99996 14.824 9.39856 15.5335 10.1081C16.243 10.8176 16.6416 11.7799 16.6416 12.7833C16.6416 13.7867 16.243 14.749 15.5335 15.4585C14.824 16.168 13.8617 16.5666 12.8583 16.5666C11.8549 16.5666 10.8926 16.168 10.1831 15.4585C9.47357 14.749 9.07497 13.7867 9.07497 12.7833C9.07497 11.7799 9.47357 10.8176 10.1831 10.1081C10.8926 9.39856 11.8549 8.99996 12.8583 8.99996Z" fill="url(#paint0_linear_4_174)"/>
<defs>
<linearGradient id="paint0_linear_4_174" x1="0.247192" y1="0.17218" x2="28.3228" y2="21.6676" gradientUnits="userSpaceOnUse">
<stop stop-color="#7A7A7A"/>
<stop offset="1" stop-color="#494949"/>
</linearGradient>
</defs>
</svg>
